<?xml version="1.0" standalone="no"?>
<!DOCTYPE svg PUBLIC "-//W3C//DTD SVG 20010904//EN"
 "http://www.w3.org/TR/2001/REC-SVG-20010904/DTD/svg10.dtd">
<svg version="1.0" xmlns="http://www.w3.org/2000/svg"
 width="458.000000pt" height="146.000000pt" viewBox="0 0 458.000000 146.000000"
 preserveAspectRatio="xMidYMid meet">
<metadata>
Created by potrace 1.15, written by Peter Selinger 2001-2017
</metadata>
<g transform="translate(0.000000,146.000000) scale(0.100000,-0.100000)"
fill="#000000" stroke="none">
<path d="M0 765 l0 -245 60 0 60 0 0 41 0 40 170 -3 c129 -2 172 -6 182 -17 9
-10 10 -12 1 -7 -9 5 -11 2 -7 -8 3 -8 11 -17 19 -19 10 -4 12 40 11 226 l-1
232 -247 2 -248 3 0 -245z m155 125 c-9 -15 62 -83 76 -74 8 5 9 3 4 -6 -5 -8
4 -23 26 -41 44 -38 32 -45 -65 -41 l-76 4 0 78 c0 53 4 80 13 83 20 9 29 8
22 -3z"/>
</g>
</svg>
